<?xml version="1.0" encoding="utf-8"?>
<!-- Generator: Adobe Illustrator 15.1.0, SVG Export Plug-In . SVG Version: 6.00 Build 0)  -->
<!DOCTYPE svg PUBLIC "-//W3C//DTD SVG 1.1//EN" "http://www.w3.org/Graphics/SVG/1.1/DTD/svg11.dtd">
<svg version="1.1" id="Layer_2" xmlns="http://www.w3.org/2000/svg" xmlns:xlink="http://www.w3.org/1999/xlink" x="0px" y="0px"
	 width="308.156px" height="188.387px" viewBox="0 0 308.156 188.387" enable-background="new 0 0 308.156 188.387"
	 xml:space="preserve">
<g>
	<g>
		<radialGradient id="SVGID_1_" cx="221.1963" cy="14.8188" r="14.3191" gradientUnits="userSpaceOnUse">
			<stop  offset="0" style="stop-color:#FFFFFF"/>
			<stop  offset="1" style="stop-color:#6F9FCF"/>
		</radialGradient>
		<circle fill="url(#SVGID_1_)" stroke="#000000" stroke-miterlimit="10" cx="221.196" cy="14.819" r="14.319"/>
		<g>
			<path d="M216.655,20.993v-2.944h-5.472v-1.881l4.654-7.523h3.553v7.238h1.463v2.166h-1.463v2.944H216.655z M216.655,15.883
				v-2.735c0-0.741,0.038-1.501,0.076-2.299h-0.058c-0.398,0.798-0.74,1.52-1.158,2.299l-1.634,2.697l-0.02,0.038H216.655z"/>
			<path d="M231.209,14.762c0,3.799-1.539,6.44-4.674,6.44c-3.191,0-4.598-2.869-4.616-6.364c0-3.59,1.501-6.402,4.692-6.402
				C229.897,8.436,231.209,11.38,231.209,14.762z M224.807,14.838c0,2.831,0.684,4.18,1.785,4.18c1.121,0,1.729-1.406,1.729-4.217
				c0-2.736-0.589-4.18-1.748-4.18C225.528,10.621,224.807,11.951,224.807,14.838z"/>
		</g>
	</g>
	<g>
		<radialGradient id="SVGID_2_" cx="149.2178" cy="173.5674" r="14.3193" gradientUnits="userSpaceOnUse">
			<stop  offset="0" style="stop-color:#FFFFFF"/>
			<stop  offset="1" style="stop-color:#6F9FCF"/>
		</radialGradient>
		<circle fill="url(#SVGID_2_)" stroke="#000000" stroke-miterlimit="10" cx="149.218" cy="173.567" r="14.319"/>
		<g>
			<path d="M139.396,179.741v-1.748l1.577-1.424c2.717-2.432,4.027-3.819,4.047-5.263c0-1.007-0.589-1.805-2.014-1.805
				c-1.064,0-1.995,0.532-2.641,1.007l-0.817-2.052c0.912-0.703,2.375-1.272,4.027-1.272c2.812,0,4.331,1.633,4.331,3.855
				c0,2.09-1.481,3.742-3.286,5.339l-1.14,0.95v0.037h4.673v2.375H139.396z"/>
			<path d="M159.041,173.511c0,3.799-1.539,6.439-4.674,6.439c-3.191,0-4.598-2.869-4.616-6.364c0-3.591,1.501-6.401,4.692-6.401
				C157.729,167.185,159.041,170.128,159.041,173.511z M152.639,173.586c0,2.831,0.684,4.18,1.785,4.18
				c1.121,0,1.729-1.405,1.729-4.218c0-2.735-0.589-4.18-1.748-4.18C153.36,169.368,152.639,170.698,152.639,173.586z"/>
		</g>
	</g>
	<g>
		<radialGradient id="SVGID_3_" cx="148.1533" cy="91.397" r="14.3191" gradientUnits="userSpaceOnUse">
			<stop  offset="0" style="stop-color:#FFFFFF"/>
			<stop  offset="1" style="stop-color:#6F9FCF"/>
		</radialGradient>
		<circle fill="url(#SVGID_3_)" stroke="#000000" stroke-miterlimit="10" cx="148.153" cy="91.397" r="14.319"/>
		<g>
			<path d="M138.872,94.741c0.514,0.285,1.691,0.76,2.869,0.76c1.5,0,2.261-0.722,2.261-1.634c0-1.235-1.216-1.786-2.489-1.786
				h-1.178V90.01h1.14c0.969,0,2.185-0.38,2.185-1.425c0-0.741-0.589-1.292-1.823-1.292c-1.007,0-2.07,0.437-2.564,0.741
				l-0.589-2.09c0.74-0.475,2.203-0.931,3.818-0.931c2.621,0,4.084,1.387,4.084,3.078c0,1.311-0.74,2.355-2.261,2.869v0.038
				c1.482,0.266,2.679,1.387,2.679,3.021c0,2.166-1.919,3.761-5.053,3.761c-1.596,0-2.945-0.418-3.667-0.854L138.872,94.741z"/>
			<path d="M158.023,91.34c0,3.799-1.539,6.44-4.674,6.44c-3.191,0-4.598-2.868-4.616-6.364c0-3.59,1.501-6.402,4.692-6.402
				C156.712,85.014,158.023,87.958,158.023,91.34z M151.621,91.416c0,2.831,0.684,4.181,1.785,4.181
				c1.121,0,1.729-1.407,1.729-4.218c0-2.736-0.589-4.18-1.748-4.18C152.343,87.199,151.621,88.529,151.621,91.416z"/>
		</g>
	</g>
	<g>
		<radialGradient id="SVGID_4_" cx="14.8193" cy="91.397" r="14.3191" gradientUnits="userSpaceOnUse">
			<stop  offset="0" style="stop-color:#FFFFFF"/>
			<stop  offset="1" style="stop-color:#6F9FCF"/>
		</radialGradient>
		<circle fill="url(#SVGID_4_)" stroke="#000000" stroke-miterlimit="10" cx="14.819" cy="91.397" r="14.319"/>
		<g>
			<path d="M8.264,87.788H8.226L5.87,88.909l-0.475-2.166l3.286-1.52h2.375v12.348H8.264V87.788z"/>
			<path d="M24.242,91.34c0,3.799-1.539,6.44-4.674,6.44c-3.191,0-4.598-2.868-4.616-6.364c0-3.59,1.501-6.402,4.692-6.402
				C22.931,85.014,24.242,87.958,24.242,91.34z M17.84,91.416c0,2.831,0.684,4.181,1.785,4.181c1.121,0,1.729-1.407,1.729-4.218
				c0-2.736-0.589-4.18-1.748-4.18C18.562,87.199,17.84,88.529,17.84,91.416z"/>
		</g>
	</g>
	<g>
		<radialGradient id="SVGID_5_" cx="291.2686" cy="91.3975" r="14.3193" gradientUnits="userSpaceOnUse">
			<stop  offset="0" style="stop-color:#FFFFFF"/>
			<stop  offset="1" style="stop-color:#6F9FCF"/>
		</radialGradient>
		<circle fill="url(#SVGID_5_)" stroke="#000000" stroke-miterlimit="10" cx="291.269" cy="91.398" r="14.319"/>
		<g>
			<path d="M289.682,87.597h-4.787l-0.268,1.9c0.268-0.039,0.494-0.039,0.799-0.039c1.178,0,2.393,0.268,3.248,0.895
				c0.932,0.627,1.5,1.652,1.5,3.096c0,2.299-1.975,4.333-5.299,4.333c-1.502,0-2.756-0.342-3.439-0.703l0.533-2.166
				c0.531,0.266,1.652,0.607,2.773,0.607c1.195,0,2.469-0.57,2.469-1.881c0-1.271-1.006-2.051-3.477-2.051
				c-0.684,0-1.158,0.037-1.652,0.113l0.797-6.479h6.803V87.597z"/>
			<path d="M301.1,91.339c0,3.801-1.539,6.442-4.674,6.442c-3.191,0-4.598-2.869-4.615-6.366c0-3.59,1.5-6.402,4.691-6.402
				C299.789,85.013,301.1,87.958,301.1,91.339z M294.697,91.416c0,2.83,0.684,4.18,1.785,4.18c1.121,0,1.73-1.407,1.73-4.217
				c0-2.736-0.59-4.18-1.748-4.18C295.42,87.199,294.697,88.529,294.697,91.416z"/>
		</g>
	</g>
	<g>
		<g>
			<line fill="none" stroke="#339933" stroke-width="2" stroke-miterlimit="10" x1="29.139" y1="91.397" x2="123.243" y2="91.397"/>
			<g>
				<polygon fill="#339933" points="133.834,91.397 118.91,97.495 122.451,91.397 118.91,85.3 				"/>
			</g>
		</g>
	</g>
	<g>
		<g>
			
				<line fill="none" stroke="#339933" stroke-width="2" stroke-miterlimit="10" x1="26.651" y1="99.462" x2="127.387" y2="161.623"/>
			<g>
				<polygon fill="#339933" points="136.4,167.185 120.498,164.537 126.713,161.207 126.901,154.159 				"/>
			</g>
		</g>
	</g>
	<g>
		<g>
			
				<line fill="none" stroke="#990000" stroke-width="2" stroke-miterlimit="10" x1="162.473" y1="167.185" x2="269.363" y2="103.22"/>
			<g>
				<polygon fill="#990000" points="278.451,97.781 268.776,110.678 268.684,103.626 262.515,100.213 				"/>
			</g>
		</g>
	</g>
	<g>
		<g>
			<line fill="none" stroke="#990000" stroke-width="2" stroke-miterlimit="10" x1="232.487" y1="23.62" x2="274.562" y2="72.936"/>
			<g>
				<polygon fill="#990000" points="281.436,80.993 267.11,73.598 274.048,72.334 276.388,65.683 				"/>
			</g>
		</g>
	</g>
	<g>
		<g>
			<line fill="none" stroke="#333399" stroke-width="2" stroke-miterlimit="10" x1="156.648" y1="79.872" x2="203.714" y2="32.56"/>
			<g>
				<polygon fill="#333399" points="211.184,25.051 204.981,39.932 203.156,33.121 196.336,31.332 				"/>
			</g>
		</g>
	</g>
	<g>
		<g>
			
				<line fill="none" stroke="#333399" stroke-width="2" stroke-miterlimit="10" x1="162.473" y1="91.397" x2="266.358" y2="91.398"/>
			<g>
				<polygon fill="#333399" points="276.949,91.398 262.025,97.496 265.566,91.398 262.025,85.301 				"/>
			</g>
		</g>
	</g>
	<g>
		<g>
			<path fill="#FF0000" d="M69.113,109.633l5.223-13.601h1.939l5.566,13.601h-2.05l-1.586-4.119h-5.687l-1.494,4.119H69.113z
				 M73.037,104.048h4.611l-1.419-3.767c-0.433-1.145-0.755-2.084-0.965-2.82c-0.173,0.872-0.417,1.738-0.733,2.598L73.037,104.048z
				"/>
		</g>
	</g>
	<g>
		<path fill="#FF0000" d="M98.532,134.633v-13.601h5.103c1.039,0,1.873,0.138,2.5,0.413c0.628,0.275,1.12,0.699,1.476,1.271
			c0.355,0.572,0.533,1.171,0.533,1.796c0,0.581-0.158,1.128-0.473,1.642s-0.792,0.928-1.429,1.243
			c0.822,0.241,1.455,0.652,1.897,1.234c0.442,0.581,0.664,1.268,0.664,2.059c0,0.638-0.134,1.229-0.404,1.777
			c-0.269,0.547-0.602,0.969-0.997,1.266c-0.396,0.297-0.892,0.521-1.489,0.673c-0.597,0.152-1.328,0.228-2.194,0.228H98.532z
			 M100.332,126.747h2.941c0.798,0,1.37-0.053,1.716-0.157c0.458-0.137,0.803-0.362,1.034-0.678
			c0.232-0.315,0.348-0.711,0.348-1.188c0-0.451-0.108-0.849-0.325-1.192c-0.217-0.343-0.526-0.578-0.928-0.705
			c-0.402-0.126-1.092-0.19-2.069-0.19h-2.718V126.747z M100.332,133.027h3.386c0.581,0,0.989-0.021,1.225-0.064
			c0.414-0.074,0.761-0.198,1.039-0.371s0.507-0.425,0.687-0.756c0.179-0.331,0.269-0.713,0.269-1.146
			c0-0.507-0.13-0.947-0.39-1.321s-0.62-0.637-1.081-0.789c-0.46-0.151-1.124-0.228-1.99-0.228h-3.145V133.027z"/>
	</g>
	<g>
		<path fill="#FF0000" d="M206.061,131.614l1.8,0.454c-0.377,1.479-1.057,2.606-2.036,3.382c-0.98,0.776-2.179,1.165-3.596,1.165
			c-1.465,0-2.657-0.299-3.576-0.896c-0.918-0.597-1.617-1.462-2.097-2.593c-0.479-1.133-0.719-2.348-0.719-3.646
			c0-1.416,0.271-2.651,0.812-3.706s1.312-1.855,2.311-2.403c0.998-0.547,2.098-0.82,3.298-0.82c1.36,0,2.505,0.346,3.433,1.039
			c0.928,0.692,1.574,1.666,1.939,2.922l-1.772,0.418c-0.315-0.99-0.773-1.711-1.373-2.162s-1.354-0.678-2.264-0.678
			c-1.045,0-1.919,0.251-2.621,0.752s-1.195,1.174-1.479,2.018c-0.284,0.845-0.427,1.715-0.427,2.611
			c0,1.157,0.168,2.167,0.506,3.029c0.337,0.863,0.861,1.508,1.572,1.935s1.481,0.64,2.31,0.64c1.009,0,1.862-0.29,2.561-0.871
			C205.34,133.621,205.813,132.759,206.061,131.614z"/>
	</g>
	<g>
		<path fill="#FF0000" d="M210.894,114.383v-13.601h9.834v1.604h-8.034v4.166h7.523v1.596h-7.523v4.629h8.35v1.605H210.894z"/>
	</g>
	<g>
		<path fill="#FF0000" d="M195.106,59.133V45.532h4.685c1.059,0,1.865,0.065,2.422,0.195c0.779,0.18,1.444,0.504,1.994,0.974
			c0.718,0.606,1.254,1.381,1.61,2.324c0.355,0.943,0.533,2.021,0.533,3.233c0,1.033-0.12,1.948-0.362,2.746
			c-0.24,0.798-0.55,1.458-0.928,1.981c-0.377,0.522-0.79,0.934-1.238,1.233c-0.448,0.3-0.989,0.528-1.623,0.682
			c-0.635,0.155-1.362,0.232-2.186,0.232H195.106z M196.906,57.528h2.904c0.896,0,1.6-0.083,2.11-0.25
			c0.51-0.167,0.917-0.402,1.22-0.705c0.427-0.427,0.759-1,0.997-1.721c0.238-0.721,0.357-1.594,0.357-2.621
			c0-1.422-0.233-2.516-0.7-3.279c-0.468-0.764-1.035-1.276-1.703-1.536c-0.482-0.186-1.258-0.278-2.328-0.278h-2.857V57.528z"/>
	</g>
	<g>
		<path fill="#FF0000" d="M236.074,60.883V47.282h9.176v1.605h-7.376v4.212h6.383v1.605h-6.383v6.179H236.074z"/>
	</g>
	<g>
		<g>
			<path fill="#666666" d="M137.266,44.625l0.203,1.242c-0.396,0.083-0.75,0.125-1.063,0.125c-0.511,0-0.906-0.081-1.188-0.242
				s-0.479-0.374-0.594-0.637c-0.115-0.263-0.172-0.816-0.172-1.66V38.68h-1.031v-1.094h1.031v-2.055l1.398-0.844v2.898h1.414v1.094
				h-1.414v4.852c0,0.401,0.024,0.659,0.074,0.773c0.049,0.115,0.13,0.206,0.242,0.273c0.112,0.068,0.272,0.102,0.48,0.102
				C136.805,44.68,137.01,44.662,137.266,44.625z"/>
			<path fill="#666666" d="M146.039,39.148h-7.563v-1.313h7.563V39.148z M146.039,42.625h-7.563v-1.313h7.563V42.625z"/>
			<path fill="#666666" d="M152.891,45.883h-1.406v-8.961c-0.339,0.323-0.783,0.646-1.332,0.969c-0.55,0.323-1.043,0.565-1.48,0.727
				v-1.359c0.786-0.37,1.474-0.817,2.063-1.344c0.588-0.526,1.005-1.036,1.25-1.531h0.906V45.883z"/>
			<path fill="#666666" d="M161.328,45.883v-8.297h1.258v1.164c0.261-0.406,0.606-0.733,1.039-0.98
				c0.433-0.247,0.925-0.371,1.477-0.371c0.614,0,1.118,0.128,1.512,0.383c0.394,0.255,0.671,0.612,0.832,1.07
				c0.656-0.969,1.511-1.453,2.563-1.453c0.823,0,1.456,0.228,1.898,0.684c0.442,0.456,0.664,1.158,0.664,2.105v5.695h-1.398v-5.227
				c0-0.563-0.046-0.967-0.137-1.215c-0.091-0.247-0.257-0.446-0.496-0.598c-0.239-0.151-0.521-0.227-0.844-0.227
				c-0.583,0-1.067,0.194-1.453,0.582c-0.386,0.388-0.578,1.009-0.578,1.863v4.82h-1.406v-5.391c0-0.625-0.114-1.094-0.344-1.406
				s-0.604-0.469-1.125-0.469c-0.396,0-0.762,0.104-1.098,0.313c-0.336,0.208-0.579,0.513-0.73,0.914
				c-0.151,0.401-0.227,0.979-0.227,1.734v4.305H161.328z"/>
			<path fill="#666666" d="M174.133,41.734c0-1.536,0.427-2.674,1.281-3.414c0.714-0.614,1.583-0.922,2.609-0.922
				c1.141,0,2.073,0.374,2.797,1.121c0.724,0.748,1.086,1.78,1.086,3.098c0,1.068-0.16,1.908-0.48,2.52
				c-0.32,0.612-0.786,1.087-1.398,1.426s-1.28,0.508-2.004,0.508c-1.161,0-2.101-0.372-2.816-1.117
				C174.491,44.208,174.133,43.136,174.133,41.734z M175.578,41.734c0,1.063,0.231,1.858,0.695,2.387
				c0.464,0.529,1.047,0.793,1.75,0.793c0.698,0,1.278-0.266,1.742-0.797s0.695-1.341,0.695-2.43c0-1.026-0.233-1.803-0.699-2.332
				c-0.466-0.528-1.046-0.793-1.738-0.793c-0.703,0-1.286,0.263-1.75,0.789C175.81,39.878,175.578,40.672,175.578,41.734z"/>
		</g>
	</g>
	<g>
		<g>
			<path fill="#666666" d="M53.516,83.755l0.203,1.242c-0.396,0.083-0.75,0.125-1.063,0.125c-0.511,0-0.906-0.081-1.188-0.242
				s-0.479-0.374-0.594-0.637c-0.115-0.263-0.172-0.816-0.172-1.66V77.81h-1.031v-1.094h1.031v-2.055l1.398-0.844v2.898h1.414v1.094
				h-1.414v4.852c0,0.401,0.024,0.659,0.074,0.773c0.049,0.115,0.13,0.206,0.242,0.273c0.112,0.068,0.272,0.102,0.48,0.102
				C53.055,83.81,53.26,83.792,53.516,83.755z"/>
			<path fill="#666666" d="M62.289,78.279h-7.563v-1.313h7.563V78.279z M62.289,81.755h-7.563v-1.313h7.563V81.755z"/>
			<path fill="#666666" d="M63.852,81.99l1.406-0.188c0.161,0.797,0.436,1.371,0.824,1.723c0.388,0.352,0.86,0.527,1.418,0.527
				c0.661,0,1.22-0.229,1.676-0.688c0.456-0.458,0.684-1.026,0.684-1.703c0-0.646-0.211-1.178-0.633-1.598
				c-0.422-0.419-0.958-0.629-1.609-0.629c-0.266,0-0.597,0.052-0.992,0.156l0.156-1.234c0.094,0.011,0.169,0.016,0.227,0.016
				c0.599,0,1.138-0.156,1.617-0.469c0.479-0.313,0.719-0.794,0.719-1.445c0-0.516-0.175-0.942-0.523-1.281
				c-0.349-0.338-0.8-0.508-1.352-0.508c-0.547,0-1.003,0.172-1.367,0.516c-0.365,0.344-0.599,0.859-0.703,1.547l-1.406-0.25
				c0.172-0.942,0.563-1.673,1.172-2.191c0.609-0.518,1.367-0.777,2.273-0.777c0.625,0,1.2,0.134,1.727,0.402
				c0.526,0.269,0.928,0.634,1.207,1.098c0.278,0.464,0.418,0.956,0.418,1.477c0,0.495-0.133,0.945-0.398,1.352
				s-0.659,0.729-1.18,0.969c0.677,0.156,1.203,0.48,1.578,0.973s0.563,1.108,0.563,1.848c0,1-0.364,1.848-1.094,2.543
				s-1.651,1.043-2.766,1.043c-1.005,0-1.84-0.299-2.504-0.898C64.324,83.719,63.945,82.943,63.852,81.99z"/>
			<path fill="#666666" d="M77.578,85.013v-8.297h1.258v1.164c0.261-0.406,0.606-0.733,1.039-0.98
				c0.433-0.247,0.925-0.371,1.477-0.371c0.614,0,1.118,0.128,1.512,0.383c0.394,0.255,0.671,0.612,0.832,1.07
				c0.656-0.969,1.511-1.453,2.563-1.453c0.823,0,1.456,0.228,1.898,0.684c0.442,0.456,0.664,1.158,0.664,2.105v5.695h-1.398v-5.227
				c0-0.563-0.046-0.967-0.137-1.215c-0.091-0.247-0.257-0.446-0.496-0.598c-0.239-0.151-0.521-0.227-0.844-0.227
				c-0.583,0-1.067,0.194-1.453,0.582c-0.386,0.388-0.578,1.009-0.578,1.863v4.82h-1.406v-5.391c0-0.625-0.114-1.094-0.344-1.406
				s-0.604-0.469-1.125-0.469c-0.396,0-0.762,0.104-1.098,0.313c-0.336,0.208-0.579,0.513-0.73,0.914
				c-0.151,0.401-0.227,0.979-0.227,1.734v4.305H77.578z"/>
			<path fill="#666666" d="M90.383,80.865c0-1.536,0.427-2.674,1.281-3.414c0.714-0.614,1.583-0.922,2.609-0.922
				c1.141,0,2.073,0.374,2.797,1.121c0.724,0.748,1.086,1.78,1.086,3.098c0,1.068-0.16,1.908-0.48,2.52
				c-0.32,0.612-0.786,1.087-1.398,1.426s-1.28,0.508-2.004,0.508c-1.161,0-2.101-0.372-2.816-1.117
				C90.741,83.339,90.383,82.266,90.383,80.865z M91.828,80.865c0,1.063,0.231,1.858,0.695,2.387
				c0.464,0.529,1.047,0.793,1.75,0.793c0.698,0,1.278-0.266,1.742-0.797s0.695-1.341,0.695-2.43c0-1.026-0.233-1.803-0.699-2.332
				c-0.466-0.528-1.046-0.793-1.738-0.793c-0.703,0-1.286,0.263-1.75,0.789C92.06,79.008,91.828,79.802,91.828,80.865z"/>
		</g>
	</g>
	<g>
		<g>
			<path fill="#666666" d="M40.766,152.375l0.203,1.242c-0.396,0.083-0.75,0.125-1.063,0.125c-0.511,0-0.906-0.081-1.188-0.242
				s-0.479-0.373-0.594-0.637c-0.115-0.263-0.172-0.816-0.172-1.66v-4.773h-1.031v-1.094h1.031v-2.055l1.398-0.844v2.898h1.414
				v1.094h-1.414v4.852c0,0.401,0.024,0.659,0.074,0.773c0.049,0.115,0.13,0.206,0.242,0.273c0.112,0.068,0.272,0.102,0.48,0.102
				C40.305,152.43,40.51,152.412,40.766,152.375z"/>
			<path fill="#666666" d="M49.539,146.898h-7.563v-1.313h7.563V146.898z M49.539,150.375h-7.563v-1.313h7.563V150.375z"/>
			<path fill="#666666" d="M55.602,153.633v-2.742h-4.969v-1.289l5.227-7.422h1.148v7.422h1.547v1.289h-1.547v2.742H55.602z
				 M55.602,149.602v-5.164l-3.586,5.164H55.602z"/>
			<path fill="#666666" d="M64.828,153.633v-8.297h1.258v1.164c0.261-0.406,0.606-0.732,1.039-0.98
				c0.433-0.247,0.925-0.371,1.477-0.371c0.614,0,1.118,0.128,1.512,0.383c0.394,0.256,0.671,0.612,0.832,1.07
				c0.656-0.969,1.511-1.453,2.563-1.453c0.823,0,1.456,0.229,1.898,0.684c0.442,0.456,0.664,1.158,0.664,2.105v5.695h-1.398v-5.227
				c0-0.563-0.046-0.967-0.137-1.215c-0.091-0.247-0.257-0.446-0.496-0.598c-0.239-0.15-0.521-0.227-0.844-0.227
				c-0.583,0-1.067,0.194-1.453,0.582c-0.386,0.389-0.578,1.01-0.578,1.863v4.82h-1.406v-5.391c0-0.625-0.114-1.094-0.344-1.406
				s-0.604-0.469-1.125-0.469c-0.396,0-0.762,0.104-1.098,0.313c-0.336,0.209-0.579,0.514-0.73,0.914
				c-0.151,0.401-0.227,0.979-0.227,1.734v4.305H64.828z"/>
			<path fill="#666666" d="M77.633,149.484c0-1.536,0.427-2.674,1.281-3.414c0.714-0.614,1.583-0.922,2.609-0.922
				c1.141,0,2.073,0.374,2.797,1.121c0.724,0.748,1.086,1.78,1.086,3.098c0,1.068-0.16,1.908-0.48,2.52
				c-0.32,0.612-0.786,1.088-1.398,1.426s-1.28,0.508-2.004,0.508c-1.161,0-2.101-0.372-2.816-1.117
				C77.991,151.959,77.633,150.886,77.633,149.484z M79.078,149.484c0,1.063,0.231,1.858,0.695,2.387
				c0.464,0.529,1.047,0.793,1.75,0.793c0.698,0,1.278-0.266,1.742-0.797s0.695-1.341,0.695-2.43c0-1.025-0.233-1.803-0.699-2.332
				c-0.466-0.528-1.046-0.793-1.738-0.793c-0.703,0-1.286,0.264-1.75,0.789C79.31,147.628,79.078,148.422,79.078,149.484z"/>
		</g>
	</g>
	<g>
		<g>
			<path fill="#666666" d="M227.266,147.006l0.203,1.242c-0.396,0.082-0.75,0.125-1.063,0.125c-0.511,0-0.906-0.082-1.188-0.242
				c-0.281-0.162-0.479-0.374-0.594-0.637c-0.115-0.264-0.172-0.816-0.172-1.66v-4.773h-1.031v-1.094h1.031v-2.055l1.398-0.844
				v2.898h1.414v1.094h-1.414v4.852c0,0.4,0.024,0.658,0.074,0.773c0.049,0.114,0.13,0.205,0.242,0.273
				c0.111,0.067,0.271,0.102,0.48,0.102C226.805,147.061,227.01,147.042,227.266,147.006z"/>
			<path fill="#666666" d="M236.039,141.529h-7.563v-1.313h7.563V141.529z M236.039,145.006h-7.563v-1.313h7.563V145.006z"/>
			<path fill="#666666" d="M237.602,145.24l1.406-0.188c0.161,0.797,0.436,1.371,0.824,1.723c0.388,0.352,0.86,0.527,1.418,0.527
				c0.661,0,1.22-0.229,1.676-0.688c0.455-0.459,0.684-1.026,0.684-1.703c0-0.646-0.211-1.179-0.633-1.598
				c-0.422-0.42-0.959-0.629-1.609-0.629c-0.266,0-0.597,0.052-0.992,0.156l0.156-1.234c0.094,0.01,0.169,0.016,0.227,0.016
				c0.599,0,1.138-0.156,1.617-0.469c0.479-0.313,0.719-0.795,0.719-1.445c0-0.516-0.175-0.943-0.523-1.281
				c-0.35-0.339-0.8-0.508-1.352-0.508c-0.547,0-1.003,0.172-1.367,0.516c-0.365,0.344-0.6,0.859-0.703,1.547l-1.406-0.25
				c0.172-0.943,0.563-1.674,1.172-2.191c0.609-0.519,1.367-0.777,2.273-0.777c0.625,0,1.2,0.134,1.727,0.402
				c0.525,0.268,0.928,0.634,1.207,1.098c0.278,0.463,0.418,0.955,0.418,1.477c0,0.494-0.133,0.945-0.398,1.352
				s-0.659,0.729-1.18,0.969c0.677,0.156,1.203,0.48,1.578,0.973s0.563,1.107,0.563,1.848c0,1-0.364,1.848-1.094,2.543
				s-1.651,1.043-2.766,1.043c-1.006,0-1.84-0.3-2.504-0.898C238.074,146.969,237.695,146.193,237.602,145.24z"/>
			<path fill="#666666" d="M251.328,148.264v-8.297h1.258v1.164c0.261-0.406,0.606-0.733,1.039-0.98
				c0.433-0.248,0.925-0.371,1.477-0.371c0.614,0,1.118,0.127,1.512,0.383c0.394,0.255,0.671,0.611,0.832,1.07
				c0.656-0.969,1.511-1.453,2.563-1.453c0.823,0,1.456,0.228,1.898,0.684c0.442,0.455,0.664,1.157,0.664,2.105v5.695h-1.398v-5.227
				c0-0.563-0.046-0.968-0.137-1.215c-0.091-0.248-0.257-0.447-0.496-0.598c-0.239-0.151-0.521-0.227-0.844-0.227
				c-0.583,0-1.067,0.193-1.453,0.582c-0.386,0.388-0.578,1.009-0.578,1.863v4.82h-1.406v-5.391c0-0.625-0.114-1.094-0.344-1.406
				s-0.604-0.469-1.125-0.469c-0.396,0-0.762,0.104-1.098,0.313c-0.336,0.208-0.579,0.513-0.73,0.914
				c-0.151,0.4-0.227,0.979-0.227,1.734v4.305H251.328z"/>
			<path fill="#666666" d="M264.133,144.115c0-1.537,0.427-2.675,1.281-3.414c0.714-0.615,1.583-0.922,2.609-0.922
				c1.141,0,2.073,0.373,2.797,1.121c0.724,0.747,1.086,1.779,1.086,3.098c0,1.067-0.16,1.907-0.48,2.52
				c-0.32,0.611-0.786,1.087-1.398,1.426c-0.612,0.338-1.28,0.508-2.004,0.508c-1.161,0-2.101-0.373-2.816-1.117
				C264.491,146.589,264.133,145.516,264.133,144.115z M265.578,144.115c0,1.063,0.231,1.857,0.695,2.387
				c0.464,0.528,1.047,0.793,1.75,0.793c0.698,0,1.278-0.266,1.742-0.797s0.695-1.342,0.695-2.43c0-1.026-0.233-1.804-0.699-2.332
				c-0.466-0.529-1.046-0.793-1.738-0.793c-0.703,0-1.286,0.263-1.75,0.789C265.81,142.258,265.578,143.053,265.578,144.115z"/>
		</g>
	</g>
	<g>
		<g>
			<path fill="#666666" d="M263.516,40.505l0.203,1.242c-0.396,0.083-0.75,0.125-1.063,0.125c-0.511,0-0.906-0.081-1.188-0.242
				s-0.479-0.374-0.594-0.637c-0.115-0.263-0.172-0.816-0.172-1.66V34.56h-1.031v-1.094h1.031v-2.055l1.398-0.844v2.898h1.414v1.094
				h-1.414v4.852c0,0.401,0.024,0.659,0.074,0.773c0.049,0.115,0.13,0.206,0.242,0.273c0.111,0.068,0.271,0.102,0.48,0.102
				C263.055,40.56,263.26,40.542,263.516,40.505z"/>
			<path fill="#666666" d="M272.289,35.029h-7.563v-1.313h7.563V35.029z M272.289,38.505h-7.563v-1.313h7.563V38.505z"/>
			<path fill="#666666" d="M273.852,38.74l1.406-0.188c0.161,0.797,0.436,1.371,0.824,1.723c0.388,0.352,0.86,0.527,1.418,0.527
				c0.661,0,1.22-0.229,1.676-0.688c0.455-0.458,0.684-1.026,0.684-1.703c0-0.646-0.211-1.178-0.633-1.598
				c-0.422-0.419-0.959-0.629-1.609-0.629c-0.266,0-0.597,0.052-0.992,0.156l0.156-1.234c0.094,0.011,0.169,0.016,0.227,0.016
				c0.599,0,1.138-0.156,1.617-0.469c0.479-0.313,0.719-0.794,0.719-1.445c0-0.516-0.175-0.942-0.523-1.281
				c-0.35-0.338-0.8-0.508-1.352-0.508c-0.547,0-1.003,0.172-1.367,0.516c-0.365,0.344-0.6,0.859-0.703,1.547l-1.406-0.25
				c0.172-0.942,0.563-1.673,1.172-2.191c0.609-0.518,1.367-0.777,2.273-0.777c0.625,0,1.2,0.134,1.727,0.402
				c0.525,0.269,0.928,0.634,1.207,1.098c0.278,0.464,0.418,0.956,0.418,1.477c0,0.495-0.133,0.945-0.398,1.352
				s-0.659,0.729-1.18,0.969c0.677,0.156,1.203,0.48,1.578,0.973s0.563,1.108,0.563,1.848c0,1-0.364,1.848-1.094,2.543
				s-1.651,1.043-2.766,1.043c-1.006,0-1.84-0.299-2.504-0.898C274.324,40.469,273.945,39.693,273.852,38.74z"/>
			<path fill="#666666" d="M287.578,41.763v-8.297h1.258v1.164c0.261-0.406,0.606-0.733,1.039-0.98
				c0.433-0.247,0.925-0.371,1.477-0.371c0.614,0,1.118,0.128,1.512,0.383c0.394,0.255,0.671,0.612,0.832,1.07
				c0.656-0.969,1.511-1.453,2.563-1.453c0.823,0,1.456,0.228,1.898,0.684c0.442,0.456,0.664,1.158,0.664,2.105v5.695h-1.398v-5.227
				c0-0.563-0.046-0.967-0.137-1.215c-0.091-0.247-0.257-0.446-0.496-0.598c-0.239-0.151-0.521-0.227-0.844-0.227
				c-0.583,0-1.067,0.194-1.453,0.582c-0.386,0.388-0.578,1.009-0.578,1.863v4.82h-1.406v-5.391c0-0.625-0.114-1.094-0.344-1.406
				s-0.604-0.469-1.125-0.469c-0.396,0-0.762,0.104-1.098,0.313c-0.336,0.208-0.579,0.513-0.73,0.914
				c-0.151,0.401-0.227,0.979-0.227,1.734v4.305H287.578z"/>
			<path fill="#666666" d="M300.383,37.615c0-1.536,0.427-2.674,1.281-3.414c0.714-0.614,1.583-0.922,2.609-0.922
				c1.141,0,2.073,0.374,2.797,1.121c0.724,0.748,1.086,1.78,1.086,3.098c0,1.068-0.16,1.908-0.48,2.52
				c-0.32,0.612-0.786,1.087-1.398,1.426s-1.28,0.508-2.004,0.508c-1.161,0-2.101-0.372-2.816-1.117
				C300.741,40.089,300.383,39.016,300.383,37.615z M301.828,37.615c0,1.063,0.231,1.858,0.695,2.387
				c0.464,0.529,1.047,0.793,1.75,0.793c0.698,0,1.278-0.266,1.742-0.797s0.695-1.341,0.695-2.43c0-1.026-0.233-1.803-0.699-2.332
				c-0.466-0.528-1.046-0.793-1.738-0.793c-0.703,0-1.286,0.263-1.75,0.789C302.06,35.758,301.828,36.552,301.828,37.615z"/>
		</g>
	</g>
	<g>
		<g>
			<path fill="#666666" d="M194.516,82.755l0.203,1.242c-0.396,0.083-0.75,0.125-1.063,0.125c-0.511,0-0.906-0.081-1.188-0.242
				s-0.479-0.374-0.594-0.637c-0.115-0.263-0.172-0.816-0.172-1.66V76.81h-1.031v-1.094h1.031v-2.055l1.398-0.844v2.898h1.414v1.094
				h-1.414v4.852c0,0.401,0.024,0.659,0.074,0.773c0.049,0.115,0.13,0.206,0.242,0.273c0.111,0.068,0.271,0.102,0.48,0.102
				C194.055,82.81,194.26,82.792,194.516,82.755z"/>
			<path fill="#666666" d="M203.289,77.278h-7.563v-1.313h7.563V77.278z M203.289,80.755h-7.563v-1.313h7.563V80.755z"/>
			<path fill="#666666" d="M204.852,80.989l1.406-0.188c0.161,0.797,0.436,1.371,0.824,1.723c0.388,0.352,0.86,0.527,1.418,0.527
				c0.661,0,1.22-0.229,1.676-0.688c0.455-0.458,0.684-1.026,0.684-1.703c0-0.646-0.211-1.178-0.633-1.598
				c-0.422-0.419-0.959-0.629-1.609-0.629c-0.266,0-0.597,0.052-0.992,0.156l0.156-1.234c0.094,0.011,0.169,0.016,0.227,0.016
				c0.599,0,1.138-0.156,1.617-0.469c0.479-0.313,0.719-0.794,0.719-1.445c0-0.516-0.175-0.942-0.523-1.281
				c-0.35-0.338-0.8-0.508-1.352-0.508c-0.547,0-1.003,0.172-1.367,0.516c-0.365,0.344-0.6,0.859-0.703,1.547l-1.406-0.25
				c0.172-0.942,0.563-1.673,1.172-2.191c0.609-0.518,1.367-0.777,2.273-0.777c0.625,0,1.2,0.134,1.727,0.402
				c0.525,0.269,0.928,0.634,1.207,1.098c0.278,0.464,0.418,0.956,0.418,1.477c0,0.495-0.133,0.945-0.398,1.352
				s-0.659,0.729-1.18,0.969c0.677,0.156,1.203,0.48,1.578,0.973s0.563,1.108,0.563,1.848c0,1-0.364,1.848-1.094,2.543
				s-1.651,1.043-2.766,1.043c-1.006,0-1.84-0.299-2.504-0.898C205.324,82.719,204.945,81.942,204.852,80.989z"/>
			<path fill="#666666" d="M218.578,84.013v-8.297h1.258v1.164c0.261-0.406,0.606-0.733,1.039-0.98
				c0.433-0.247,0.925-0.371,1.477-0.371c0.614,0,1.118,0.128,1.512,0.383c0.394,0.255,0.671,0.612,0.832,1.07
				c0.656-0.969,1.511-1.453,2.563-1.453c0.823,0,1.456,0.228,1.898,0.684c0.442,0.456,0.664,1.158,0.664,2.105v5.695h-1.398v-5.227
				c0-0.563-0.046-0.967-0.137-1.215c-0.091-0.247-0.257-0.446-0.496-0.598c-0.239-0.151-0.521-0.227-0.844-0.227
				c-0.583,0-1.067,0.194-1.453,0.582c-0.386,0.388-0.578,1.009-0.578,1.863v4.82h-1.406v-5.391c0-0.625-0.114-1.094-0.344-1.406
				s-0.604-0.469-1.125-0.469c-0.396,0-0.762,0.104-1.098,0.313c-0.336,0.208-0.579,0.513-0.73,0.914
				c-0.151,0.401-0.227,0.979-0.227,1.734v4.305H218.578z"/>
			<path fill="#666666" d="M231.383,79.864c0-1.536,0.427-2.674,1.281-3.414c0.714-0.614,1.583-0.922,2.609-0.922
				c1.141,0,2.073,0.374,2.797,1.121c0.724,0.748,1.086,1.78,1.086,3.098c0,1.068-0.16,1.908-0.48,2.52
				c-0.32,0.612-0.786,1.087-1.398,1.426s-1.28,0.508-2.004,0.508c-1.161,0-2.101-0.372-2.816-1.117
				C231.741,82.338,231.383,81.266,231.383,79.864z M232.828,79.864c0,1.063,0.231,1.858,0.695,2.387
				c0.464,0.529,1.047,0.793,1.75,0.793c0.698,0,1.278-0.266,1.742-0.797s0.695-1.341,0.695-2.43c0-1.026-0.233-1.803-0.699-2.332
				c-0.466-0.528-1.046-0.793-1.738-0.793c-0.703,0-1.286,0.263-1.75,0.789C233.06,78.008,232.828,78.802,232.828,79.864z"/>
		</g>
	</g>
</g>
</svg>
